{
    "asset" : {
        "generator" : "Khronos glTF Blender I/O v1.8.19",
        "version" : "2.0"
    },
    "scene" : 0,
    "scenes" : [
        {
            "name" : "Scene",
            "nodes" : [
                0,
                1,
                2,
                4
            ]
        }
    ],
    "nodes" : [
        {
            "mesh" : 0,
            "name" : "leg-left-bottom",
            "rotation" : [
                1,
                0,
                0,
                0
            ],
            "scale" : [
                -0.04467614367604256,
                -0.014958600513637066,
                -0.3175075352191925
            ],
            "translation" : [
                -0.8095317482948303,
                0.01535818912088871,
                -0.0063485195860266685
            ]
        },
        {
            "mesh" : 1,
            "name" : "Plane",
            "scale" : [
                2.2380552291870117,
                2.2380552291870117,
                2.2380552291870117
            ]
        },
        {
            "mesh" : 2,
            "name" : "leg-right-bottom",
            "rotation" : [
                1,
                0,
                0,
                0
            ],
            "scale" : [
                -0.04467614367604256,
                -0.014958600513637066,
                -0.3175075352191925
            ],
            "translation" : [
                0.8104400038719177,
                0.01535818912088871,
                -0.0063485195860266685
            ]
        },
        {
            "mesh" : 3,
            "name" : "leg-left-top.002",
            "rotation" : [
                1,
                0,
                0,
                0
            ],
            "scale" : [
                -0.04690408334136009,
                -0.7852283716201782,
                -0.4805784225463867
            ],
            "translation" : [
                -0.8499020338058472,
                -0.8223838806152344,
                -0.01561751402914524
            ]
        },
        {
            "children" : [
                3
            ],
            "mesh" : 4,
            "name" : "Table",
            "scale" : [
                0.95250004529953,
                0.019050000235438347,
                0.4065000116825104
            ],
            "translation" : [
                0,
                1.002000093460083,
                0
            ]
        }
    ],
    "animations" : [
        {
            "channels" : [
                {
                    "sampler" : 0,
                    "target" : {
                        "node" : 4,
                        "path" : "translation"
                    }
                }
            ],
            "name" : "table_down_actoin",
            "samplers" : [
                {
                    "input" : 23,
                    "interpolation" : "LINEAR",
                    "output" : 24
                }
            ]
        },
        {
            "channels" : [
                {
                    "sampler" : 0,
                    "target" : {
                        "node" : 4,
                        "path" : "translation"
                    }
                }
            ],
            "name" : "table_up_action",
            "samplers" : [
                {
                    "input" : 25,
                    "interpolation" : "LINEAR",
                    "output" : 26
                }
            ]
        },
        {
            "channels" : [
                {
                    "sampler" : 0,
                    "target" : {
                        "node" : 3,
                        "path" : "translation"
                    }
                }
            ],
            "name" : "leg-left-top.001Action.001",
            "samplers" : [
                {
                    "input" : 27,
                    "interpolation" : "STEP",
                    "output" : 28
                }
            ]
        }
    ],
    "materials" : [
        {
            "doubleSided" : true,
            "name" : "leg",
            "normalTexture" : {
                "index" : 0
            },
            "pbrMetallicRoughness" : {
                "baseColorTexture" : {
                    "index" : 1
                },
                "metallicFactor" : 0,
                "metallicRoughnessTexture" : {
                    "index" : 2
                }
            }
        },
        {
            "doubleSided" : true,
            "name" : "floor",
            "normalTexture" : {
                "index" : 3
            },
            "pbrMetallicRoughness" : {
                "baseColorTexture" : {
                    "index" : 4
                },
                "metallicFactor" : 0,
                "metallicRoughnessTexture" : {
                    "index" : 5
                }
            }
        },
        {
            "doubleSided" : true,
            "name" : "\u6750\u8d28",
            "normalTexture" : {
                "index" : 6
            },
            "pbrMetallicRoughness" : {
                "baseColorTexture" : {
                    "index" : 7
                },
                "metallicFactor" : 0,
                "metallicRoughnessTexture" : {
                    "index" : 8
                }
            }
        }
    ],
    "meshes" : [
        {
            "name" : "\u7acb\u65b9\u4f53.006",
            "primitives" : [
                {
                    "attributes" : {
                        "POSITION" : 0,
                        "NORMAL" : 1,
                        "TEXCOORD_0" : 2
                    },
                    "indices" : 3,
                    "material" : 0
                }
            ]
        },
        {
            "name" : "Plane",
            "primitives" : [
                {
                    "attributes" : {
                        "POSITION" : 4,
                        "NORMAL" : 5,
                        "TEXCOORD_0" : 6
                    },
                    "indices" : 7,
                    "material" : 1
                }
            ]
        },
        {
            "name" : "\u7acb\u65b9\u4f53.005",
            "primitives" : [
                {
                    "attributes" : {
                        "POSITION" : 8,
                        "NORMAL" : 9,
                        "TEXCOORD_0" : 10
                    },
                    "indices" : 3,
                    "material" : 0
                }
            ]
        },
        {
            "name" : "\u7acb\u65b9\u4f53.003",
            "primitives" : [
                {
                    "attributes" : {
                        "POSITION" : 11,
                        "NORMAL" : 12,
                        "TEXCOORD_0" : 13
                    },
                    "indices" : 14,
                    "material" : 0
                }
            ]
        },
        {
            "name" : "surface.001",
            "primitives" : [
                {
                    "attributes" : {
                        "POSITION" : 15,
                        "NORMAL" : 16,
                        "TEXCOORD_0" : 17
                    },
                    "indices" : 18,
                    "material" : 2
                },
                {
                    "attributes" : {
                        "POSITION" : 19,
                        "NORMAL" : 20,
                        "TEXCOORD_0" : 21
                    },
                    "indices" : 22,
                    "material" : 0
                }
            ]
        }
    ],
    "textures" : [
        {
            "sampler" : 0,
            "source" : 0
        },
        {
            "sampler" : 0,
            "source" : 1
        },
        {
            "sampler" : 0,
            "source" : 2
        },
        {
            "sampler" : 0,
            "source" : 3
        },
        {
            "sampler" : 0,
            "source" : 4
        },
        {
            "sampler" : 0,
            "source" : 5
        },
        {
            "sampler" : 0,
            "source" : 6
        },
        {
            "sampler" : 0,
            "source" : 7
        },
        {
            "sampler" : 0,
            "source" : 8
        }
    ],
    "images" : [
        {
            "mimeType" : "image/jpeg",
            "name" : "Plastic010_2K_NormalDX",
            "uri" : "Plastic010_2K_NormalDX.jpg"
        },
        {
            "mimeType" : "image/jpeg",
            "name" : "Plastic010_2K_Color",
            "uri" : "Plastic010_2K_Color.jpg"
        },
        {
            "mimeType" : "image/png",
            "name" : "Plastic010_2K_Roughness",
            "uri" : "Plastic010_2K_Roughness.png"
        },
        {
            "mimeType" : "image/jpeg",
            "name" : "WoodFloor025_2K_NormalDX",
            "uri" : "WoodFloor025_2K_NormalDX.jpg"
        },
        {
            "mimeType" : "image/jpeg",
            "name" : "WoodFloor025_2K_Color",
            "uri" : "WoodFloor025_2K_Color.jpg"
        },
        {
            "mimeType" : "image/png",
            "name" : "WoodFloor025_2K_Roughness",
            "uri" : "WoodFloor025_2K_Roughness.png"
        },
        {
            "mimeType" : "image/jpeg",
            "name" : "Plastic006_2K_NormalDX",
            "uri" : "Plastic006_2K_NormalDX.jpg"
        },
        {
            "mimeType" : "image/jpeg",
            "name" : "Plastic006_2K_Color",
            "uri" : "Plastic006_2K_Color.jpg"
        },
        {
            "mimeType" : "image/png",
            "name" : "Plastic006_2K_Roughness",
            "uri" : "Plastic006_2K_Roughness.png"
        }
    ],
    "accessors" : [
        {
            "bufferView" : 0,
            "componentType" : 5126,
            "count" : 40,
            "max" : [
                1,
                42.011417388916016,
                1
            ],
            "min" : [
                -1,
                -1,
                -1
            ],
            "type" : "VEC3"
        },
        {
            "bufferView" : 1,
            "componentType" : 5126,
            "count" : 40,
            "type" : "VEC3"
        },
        {
            "bufferView" : 2,
            "componentType" : 5126,
            "count" : 40,
            "type" : "VEC2"
        },
        {
            "bufferView" : 3,
            "componentType" : 5123,
            "count" : 60,
            "type" : "SCALAR"
        },
        {
            "bufferView" : 4,
            "componentType" : 5126,
            "count" : 4,
            "max" : [
                1,
                0,
                1
            ],
            "min" : [
                -1,
                0,
                -1
            ],
            "type" : "VEC3"
        },
        {
            "bufferView" : 5,
            "componentType" : 5126,
            "count" : 4,
            "type" : "VEC3"
        },
        {
            "bufferView" : 6,
            "componentType" : 5126,
            "count" : 4,
            "type" : "VEC2"
        },
        {
            "bufferView" : 7,
            "componentType" : 5123,
            "count" : 6,
            "type" : "SCALAR"
        },
        {
            "bufferView" : 8,
            "componentType" : 5126,
            "count" : 40,
            "max" : [
                1,
                42.011417388916016,
                0.9999999403953552
            ],
            "min" : [
                -1,
                -1,
                -0.9999999403953552
            ],
            "type" : "VEC3"
        },
        {
            "bufferView" : 9,
            "componentType" : 5126,
            "count" : 40,
            "type" : "VEC3"
        },
        {
            "bufferView" : 10,
            "componentType" : 5126,
            "count" : 40,
            "type" : "VEC2"
        },
        {
            "bufferView" : 11,
            "componentType" : 5126,
            "count" : 36,
            "max" : [
                1.0000020265579224,
                1.0000001192092896,
                1
            ],
            "min" : [
                -0.9999982118606567,
                -36.954647064208984,
                -1
            ],
            "type" : "VEC3"
        },
        {
            "bufferView" : 12,
            "componentType" : 5126,
            "count" : 36,
            "type" : "VEC3"
        },
        {
            "bufferView" : 13,
            "componentType" : 5126,
            "count" : 36,
            "type" : "VEC2"
        },
        {
            "bufferView" : 14,
            "componentType" : 5123,
            "count" : 54,
            "type" : "SCALAR"
        },
        {
            "bufferView" : 15,
            "componentType" : 5126,
            "count" : 120,
            "max" : [
                1,
                1,
                1
            ],
            "min" : [
                -1,
                -1,
                -1
            ],
            "type" : "VEC3"
        },
        {
            "bufferView" : 16,
            "componentType" : 5126,
            "count" : 120,
            "type" : "VEC3"
        },
        {
            "bufferView" : 17,
            "componentType" : 5126,
            "count" : 120,
            "type" : "VEC2"
        },
        {
            "bufferView" : 18,
            "componentType" : 5123,
            "count" : 228,
            "type" : "SCALAR"
        },
        {
            "bufferView" : 19,
            "componentType" : 5126,
            "count" : 72,
            "max" : [
                0.8977595567703247,
                -0.037156105041503906,
                0.46496090292930603
            ],
            "min" : [
                -0.8968062400817871,
                -29.89862060546875,
                -0.4961959421634674
            ],
            "type" : "VEC3"
        },
        {
            "bufferView" : 20,
            "componentType" : 5126,
            "count" : 72,
            "type" : "VEC3"
        },
        {
            "bufferView" : 21,
            "componentType" : 5126,
            "count" : 72,
            "type" : "VEC2"
        },
        {
            "bufferView" : 22,
            "componentType" : 5123,
            "count" : 108,
            "type" : "SCALAR"
        },
        {
            "bufferView" : 23,
            "componentType" : 5126,
            "count" : 59,
            "max" : [
                2.4583333333333335
            ],
            "min" : [
                0.041666666666666664
            ],
            "type" : "SCALAR"
        },
        {
            "bufferView" : 24,
            "componentType" : 5126,
            "count" : 59,
            "type" : "VEC3"
        },
        {
            "bufferView" : 25,
            "componentType" : 5126,
            "count" : 60,
            "max" : [
                2.5
            ],
            "min" : [
                0.041666666666666664
            ],
            "type" : "SCALAR"
        },
        {
            "bufferView" : 26,
            "componentType" : 5126,
            "count" : 60,
            "type" : "VEC3"
        },
        {
            "bufferView" : 27,
            "componentType" : 5126,
            "count" : 1,
            "max" : [
                1.2916666666666667
            ],
            "min" : [
                1.2916666666666667
            ],
            "type" : "SCALAR"
        },
        {
            "bufferView" : 28,
            "componentType" : 5126,
            "count" : 1,
            "type" : "VEC3"
        }
    ],
    "bufferViews" : [
        {
            "buffer" : 0,
            "byteLength" : 480,
            "byteOffset" : 0
        },
        {
            "buffer" : 0,
            "byteLength" : 480,
            "byteOffset" : 480
        },
        {
            "buffer" : 0,
            "byteLength" : 320,
            "byteOffset" : 960
        },
        {
            "buffer" : 0,
            "byteLength" : 120,
            "byteOffset" : 1280
        },
        {
            "buffer" : 0,
            "byteLength" : 48,
            "byteOffset" : 1400
        },
        {
            "buffer" : 0,
            "byteLength" : 48,
            "byteOffset" : 1448
        },
        {
            "buffer" : 0,
            "byteLength" : 32,
            "byteOffset" : 1496
        },
        {
            "buffer" : 0,
            "byteLength" : 12,
            "byteOffset" : 1528
        },
        {
            "buffer" : 0,
            "byteLength" : 480,
            "byteOffset" : 1540
        },
        {
            "buffer" : 0,
            "byteLength" : 480,
            "byteOffset" : 2020
        },
        {
            "buffer" : 0,
            "byteLength" : 320,
            "byteOffset" : 2500
        },
        {
            "buffer" : 0,
            "byteLength" : 432,
            "byteOffset" : 2820
        },
        {
            "buffer" : 0,
            "byteLength" : 432,
            "byteOffset" : 3252
        },
        {
            "buffer" : 0,
            "byteLength" : 288,
            "byteOffset" : 3684
        },
        {
            "buffer" : 0,
            "byteLength" : 108,
            "byteOffset" : 3972
        },
        {
            "buffer" : 0,
            "byteLength" : 1440,
            "byteOffset" : 4080
        },
        {
            "buffer" : 0,
            "byteLength" : 1440,
            "byteOffset" : 5520
        },
        {
            "buffer" : 0,
            "byteLength" : 960,
            "byteOffset" : 6960
        },
        {
            "buffer" : 0,
            "byteLength" : 456,
            "byteOffset" : 7920
        },
        {
            "buffer" : 0,
            "byteLength" : 864,
            "byteOffset" : 8376
        },
        {
            "buffer" : 0,
            "byteLength" : 864,
            "byteOffset" : 9240
        },
        {
            "buffer" : 0,
            "byteLength" : 576,
            "byteOffset" : 10104
        },
        {
            "buffer" : 0,
            "byteLength" : 216,
            "byteOffset" : 10680
        },
        {
            "buffer" : 0,
            "byteLength" : 236,
            "byteOffset" : 10896
        },
        {
            "buffer" : 0,
            "byteLength" : 708,
            "byteOffset" : 11132
        },
        {
            "buffer" : 0,
            "byteLength" : 240,
            "byteOffset" : 11840
        },
        {
            "buffer" : 0,
            "byteLength" : 720,
            "byteOffset" : 12080
        },
        {
            "buffer" : 0,
            "byteLength" : 4,
            "byteOffset" : 12800
        },
        {
            "buffer" : 0,
            "byteLength" : 12,
            "byteOffset" : 12804
        }
    ],
    "samplers" : [
        {
            "magFilter" : 9729,
            "minFilter" : 9987
        }
    ],
    "buffers" : [
        {
            "byteLength" : 12816,
            "uri" : "lifting_desk.bin"
        }
    ]
}
